<svg xmlns="http://www.w3.org/2000/svg" xmlns:xlink="http://www.w3.org/1999/xlink" width="109" height="26" viewBox="0 0 109 26">
    <defs>
        <path id="a" d="M11.317 20.447c4.977 0 9.013-4.02 9.013-8.977 0-4.958-4.036-8.977-9.013-8.977-4.978 0-9.013 4.019-9.013 8.977s4.035 8.977 9.013 8.977zm0 2.295C5.067 22.742 0 17.695 0 11.47 0 5.244 5.067.198 11.317.198S22.634 5.244 22.634 11.47c0 6.225-5.067 11.272-11.317 11.272z"/>
    </defs>
    <g fill="none" fill-rule="evenodd">
        <path fill="#FFF" d="M4.345 18.745l-2.11 5.88H.128v-1.113L7.913 2.38h3.083l7.786 21.132v1.112h-2.109l-2.109-5.879H4.344zm9.733-1.747L9.536 4.604h-.163L4.831 16.998h9.247zm20.595-12.87h6.489l.649-.636V2.38H25.264v1.748h7.138v20.496h2.271V4.128zM96.46 21.923l6.976-17.16h.162l2.595 19.861h2.11v-1.112l-2.92-21.132h-3.245l-7.138 17.16h-.162L87.7 2.38h-3.245l-2.92 21.132v1.112h2.11l2.595-19.86h.162l6.975 17.16h3.082z"/>
        <g transform="translate(49.615 2.295)">
            <mask id="b" fill="#fff">
                <use xlink:href="#a"/>
            </mask>
            <use fill="#FFF" fill-rule="nonzero" xlink:href="#a"/>
            <path fill="#4A4A4A" d="M9.979 4.092c.986-.887 1.543-1.595 1.671-2.122.129-.528.08-1.356-.148-2.484.627-.376 1.175-.638 1.643-.785a12.966 12.966 0 0 1 1.705-.39l.013 4.576-4.884 1.205z" mask="url(#b)" transform="rotate(25 12.42 1.202)"/>
            <path fill="#4A4A4A" d="M19.118 9.58c.101-.47.13-1.027.085-1.671-.068-.966-.452-1.427-.933-1.89.608-.255 1.955.019 2.65-.203a12.69 12.69 0 0 1 1.689-.392l-.764 5.699-2.727-1.542z" mask="url(#b)" transform="rotate(-134 20.44 8.273)"/>
        </g>
        <path fill="#4A4A4A" d="M67.09 12.29c-3.394 0-6.146-2.74-6.146-6.121 0-3.381 2.752-6.122 6.146-6.122s6.146 2.74 6.146 6.122c0 3.38-2.752 6.122-6.146 6.122z"/>
        <path fill="#FFF" fill-rule="nonzero" d="M67.09 9.161c1.66 0 3.004-1.34 3.004-2.992a2.998 2.998 0 0 0-3.004-2.993 2.998 2.998 0 0 0-3.004 2.993A2.998 2.998 0 0 0 67.09 9.16z"/>
    </g>
</svg>
