<svg xmlns="http://www.w3.org/2000/svg" xmlns:xlink="http://www.w3.org/1999/xlink" width="179" height="42" viewBox="0 0 179 42">
    <defs>
        <path id="a" d="M18.688 33.766c8.22 0 14.884-6.638 14.884-14.825S26.908 4.116 18.688 4.116 3.805 10.754 3.805 18.941s6.664 14.825 14.883 14.825zm0 3.79C8.368 37.556 0 29.222 0 18.94 0 8.661 8.367.326 18.688.326c10.322 0 18.689 8.334 18.689 18.615 0 10.28-8.367 18.615-18.689 18.615z"/>
    </defs>
    <g fill="none" fill-rule="evenodd">
        <path fill="#2B4D89" d="M7.175 30.956l-3.483 9.708H.21v-1.837L13.068 3.93h5.09l12.858 34.897v1.837h-3.482l-3.483-9.708H7.175zm16.073-2.886L15.747 7.603h-.268l-7.5 20.467h15.269zm34.01-21.254h10.716l1.071-1.05V3.93H41.721v2.886h11.787v33.848h3.75V6.816zm102.033 29.387L170.81 7.866h.268l4.286 32.798h3.482v-1.837L174.024 3.93h-5.357L156.88 32.268h-.268L144.825 3.93h-5.358l-4.822 34.897v1.837h3.483l4.286-32.798h.268L154.2 36.203h5.09z"/>
        <g transform="translate(81.932 3.79)">
            <mask id="b" fill="#fff">
                <use xlink:href="#a"/>
            </mask>
            <use fill="#2B4D89" fill-rule="nonzero" xlink:href="#a"/>
            <path fill="#FFF" d="M16.479 6.758c1.628-1.466 2.548-2.635 2.76-3.505.212-.871.13-2.239-.245-4.102 1.036-.621 1.94-1.053 2.713-1.297.774-.243 1.712-.457 2.816-.644l.02 7.557-8.064 1.991z" mask="url(#b)" transform="rotate(25 20.511 1.984)"/>
            <path fill="#FFF" d="M31.57 15.822c.168-.778.215-1.698.141-2.761-.111-1.595-.746-2.357-1.54-3.121 1.004-.422 3.228.03 4.377-.336.765-.244 1.695-.46 2.788-.647l-1.26 9.41-4.505-2.545z" mask="url(#b)" transform="rotate(-134 33.753 13.663)"/>
        </g>
        <path fill="#FFF" d="M110.79 20.297c-5.605 0-10.149-4.527-10.149-10.11 0-5.584 4.544-10.11 10.15-10.11 5.605 0 10.15 4.526 10.15 10.11 0 5.583-4.545 10.11-10.15 10.11z"/>
        <path fill="#2B4D89" fill-rule="nonzero" d="M110.79 15.128c2.74 0 4.962-2.212 4.962-4.941 0-2.73-2.221-4.942-4.961-4.942s-4.961 2.213-4.961 4.942 2.22 4.941 4.96 4.941z"/>
    </g>
</svg>
